<mxfile host="app.diagrams.net" agent="Mozilla/5.0 (Windows NT 10.0; Win64; x64) AppleWebKit/537.36 (KHTML, like Gecko) Chrome/137.0.0.0 Safari/537.36" version="27.1.4">
  <diagram name="PÃ¡gina-1" id="ACrvOELeegxrXwFE_WTt">
    <mxGraphModel dx="969" dy="488" grid="1" gridSize="10" guides="1" tooltips="1" connect="1" arrows="1" fold="1" page="1" pageScale="1" pageWidth="827" pageHeight="1169" math="0" shadow="0">
      <root>
        <mxCell id="0" />
        <mxCell id="1" parent="0" />
        <mxCell id="CT-QYsTwAh5fWQXxTRhg-1" style="edgeStyle=orthogonalEdgeStyle;rounded=0;orthogonalLoop=1;jettySize=auto;html=1;exitX=0.5;exitY=1;exitDx=0;exitDy=0;entryX=0.5;entryY=0;entryDx=0;entryDy=0;" edge="1" parent="1" source="CT-QYsTwAh5fWQXxTRhg-2" target="CT-QYsTwAh5fWQXxTRhg-8">
          <mxGeometry relative="1" as="geometry" />
        </mxCell>
        <mxCell id="CT-QYsTwAh5fWQXxTRhg-2" value="" style="rounded=0;whiteSpace=wrap;html=1;" vertex="1" parent="1">
          <mxGeometry x="264" y="280" width="120" height="60" as="geometry" />
        </mxCell>
        <mxCell id="CT-QYsTwAh5fWQXxTRhg-3" style="edgeStyle=orthogonalEdgeStyle;rounded=0;orthogonalLoop=1;jettySize=auto;html=1;exitX=0;exitY=0.5;exitDx=0;exitDy=0;entryX=0.5;entryY=0;entryDx=0;entryDy=0;" edge="1" parent="1" source="CT-QYsTwAh5fWQXxTRhg-4" target="CT-QYsTwAh5fWQXxTRhg-2">
          <mxGeometry relative="1" as="geometry" />
        </mxCell>
        <mxCell id="CT-QYsTwAh5fWQXxTRhg-4" value="" style="ellipse;whiteSpace=wrap;html=1;" vertex="1" parent="1">
          <mxGeometry x="384" y="180" width="120" height="80" as="geometry" />
        </mxCell>
        <mxCell id="CT-QYsTwAh5fWQXxTRhg-5" value="CUDI" style="text;html=1;align=center;verticalAlign=middle;whiteSpace=wrap;rounded=0;" vertex="1" parent="1">
          <mxGeometry x="414" y="205" width="60" height="30" as="geometry" />
        </mxCell>
        <mxCell id="CT-QYsTwAh5fWQXxTRhg-6" value="UNIVERSIDADES" style="text;html=1;align=center;verticalAlign=middle;whiteSpace=wrap;rounded=0;" vertex="1" parent="1">
          <mxGeometry x="274" y="295" width="100" height="30" as="geometry" />
        </mxCell>
        <mxCell id="CT-QYsTwAh5fWQXxTRhg-7" style="edgeStyle=orthogonalEdgeStyle;rounded=0;orthogonalLoop=1;jettySize=auto;html=1;exitX=0.5;exitY=1;exitDx=0;exitDy=0;entryX=0.5;entryY=0;entryDx=0;entryDy=0;" edge="1" parent="1" source="CT-QYsTwAh5fWQXxTRhg-8" target="CT-QYsTwAh5fWQXxTRhg-11">
          <mxGeometry relative="1" as="geometry" />
        </mxCell>
        <mxCell id="CT-QYsTwAh5fWQXxTRhg-8" value="" style="rounded=0;whiteSpace=wrap;html=1;" vertex="1" parent="1">
          <mxGeometry x="264" y="380" width="120" height="60" as="geometry" />
        </mxCell>
        <mxCell id="CT-QYsTwAh5fWQXxTRhg-9" value="CARRERAS" style="text;html=1;align=center;verticalAlign=middle;whiteSpace=wrap;rounded=0;" vertex="1" parent="1">
          <mxGeometry x="274" y="395" width="100" height="30" as="geometry" />
        </mxCell>
        <mxCell id="CT-QYsTwAh5fWQXxTRhg-10" style="edgeStyle=orthogonalEdgeStyle;rounded=0;orthogonalLoop=1;jettySize=auto;html=1;exitX=0.5;exitY=1;exitDx=0;exitDy=0;entryX=0.5;entryY=0;entryDx=0;entryDy=0;" edge="1" parent="1" source="CT-QYsTwAh5fWQXxTRhg-11" target="CT-QYsTwAh5fWQXxTRhg-16">
          <mxGeometry relative="1" as="geometry" />
        </mxCell>
        <mxCell id="CT-QYsTwAh5fWQXxTRhg-11" value="" style="rounded=0;whiteSpace=wrap;html=1;" vertex="1" parent="1">
          <mxGeometry x="264" y="480" width="120" height="60" as="geometry" />
        </mxCell>
        <mxCell id="CT-QYsTwAh5fWQXxTRhg-12" value="MATERIAS" style="text;html=1;align=center;verticalAlign=middle;whiteSpace=wrap;rounded=0;" vertex="1" parent="1">
          <mxGeometry x="294" y="495" width="60" height="30" as="geometry" />
        </mxCell>
        <mxCell id="CT-QYsTwAh5fWQXxTRhg-13" style="edgeStyle=orthogonalEdgeStyle;rounded=0;orthogonalLoop=1;jettySize=auto;html=1;exitX=0;exitY=0.5;exitDx=0;exitDy=0;entryX=1;entryY=0.5;entryDx=0;entryDy=0;" edge="1" parent="1" source="CT-QYsTwAh5fWQXxTRhg-14" target="CT-QYsTwAh5fWQXxTRhg-11">
          <mxGeometry relative="1" as="geometry">
            <Array as="points">
              <mxPoint x="464" y="510" />
              <mxPoint x="464" y="510" />
            </Array>
          </mxGeometry>
        </mxCell>
        <mxCell id="CT-QYsTwAh5fWQXxTRhg-14" value="" style="rounded=0;whiteSpace=wrap;html=1;" vertex="1" parent="1">
          <mxGeometry x="444" y="480" width="120" height="60" as="geometry" />
        </mxCell>
        <mxCell id="CT-QYsTwAh5fWQXxTRhg-15" value="PROFESORES" style="text;html=1;align=center;verticalAlign=middle;whiteSpace=wrap;rounded=0;" vertex="1" parent="1">
          <mxGeometry x="464" y="495" width="80" height="30" as="geometry" />
        </mxCell>
        <mxCell id="CT-QYsTwAh5fWQXxTRhg-16" value="" style="rounded=0;whiteSpace=wrap;html=1;" vertex="1" parent="1">
          <mxGeometry x="264" y="580" width="120" height="60" as="geometry" />
        </mxCell>
        <mxCell id="CT-QYsTwAh5fWQXxTRhg-17" value="AULAS" style="text;html=1;align=center;verticalAlign=middle;whiteSpace=wrap;rounded=0;" vertex="1" parent="1">
          <mxGeometry x="294" y="595" width="60" height="30" as="geometry" />
        </mxCell>
      </root>
    </mxGraphModel>
  </diagram>
</mxfile>
